<svg xmlns="http://www.w3.org/2000/svg" viewBox="0 0 512 512">
  <defs>
    <linearGradient id="bg" x1="0" y1="0" x2="1" y2="1">
      <stop offset="0%" stop-color="#6e8efb"/>
      <stop offset="100%" stop-color="#a777e3"/>
    </linearGradient>
  </defs>
  <!-- 圆角方块背景 -->
  <rect width="512" height="512" rx="112" fill="url(#bg)"/>
  <!-- 笔尖 -->
  <g transform="translate(256,256) rotate(-45)">
    <path d="M-20,140 L0,-120 L20,140 Z" fill="#fff" opacity="0.95"/>
    <path d="M-20,140 L20,140 L10,170 L-10,170 Z" fill="#fff" opacity="0.7"/>
    <!-- 墨水滴 -->
    <circle cx="0" cy="-130" r="14" fill="#fff" opacity="0.9"/>
  </g>
  <!-- AI 星星 -->
  <g transform="translate(340,120)" fill="#fff" opacity="0.9">
    <path d="M0,-28 L6,-8 L26,0 L6,8 L0,28 L-6,8 L-26,0 L-6,-8 Z"/>
  </g>
  <g transform="translate(380,180)" fill="#fff" opacity="0.5">
    <path d="M0,-14 L3,-4 L13,0 L3,4 L0,14 L-3,4 L-13,0 L-3,-4 Z"/>
  </g>
</svg>
